<svg width="22" height="22" viewBox="0 0 22 22" fill="none" xmlns="http://www.w3.org/2000/svg">
<path d="M17.6354 5.11404H17.2687L14.1704 2.0157C13.9229 1.7682 13.5195 1.7682 13.2629 2.0157C13.0154 2.2632 13.0154 2.66654 13.2629 2.9232L15.4537 5.11404H6.5437L8.73453 2.9232C8.98203 2.6757 8.98203 2.27237 8.73453 2.0157C8.48703 1.7682 8.0837 1.7682 7.82703 2.0157L4.73786 5.11404H4.3712C3.5462 5.11404 1.83203 5.11404 1.83203 7.4607C1.83203 8.34987 2.01536 8.93654 2.40036 9.32154C2.62036 9.5507 2.8862 9.66987 3.17036 9.73404C3.4362 9.7982 3.72036 9.80737 3.99536 9.80737H18.002C18.2862 9.80737 18.552 9.78904 18.8087 9.73404C19.5787 9.5507 20.1654 9.0007 20.1654 7.4607C20.1654 5.11404 18.4512 5.11404 17.6354 5.11404Z" fill="#292D32"/>
<path d="M17.4611 11H4.4628C3.89447 11 3.46364 11.5042 3.5553 12.0633L4.3253 16.775C4.58197 18.3517 5.26947 20.1667 8.32197 20.1667H13.4645C16.5536 20.1667 17.1036 18.6175 17.4336 16.885L18.3595 12.0908C18.4695 11.5225 18.0386 11 17.4611 11ZM9.72447 16.9125C9.72447 17.27 9.4403 17.5542 9.09197 17.5542C8.73447 17.5542 8.4503 17.27 8.4503 16.9125V13.8875C8.4503 13.5392 8.73447 13.2458 9.09197 13.2458C9.4403 13.2458 9.72447 13.5392 9.72447 13.8875V16.9125ZM13.6478 16.9125C13.6478 17.27 13.3636 17.5542 13.0061 17.5542C12.6578 17.5542 12.3645 17.27 12.3645 16.9125V13.8875C12.3645 13.5392 12.6578 13.2458 13.0061 13.2458C13.3636 13.2458 13.6478 13.5392 13.6478 13.8875V16.9125Z" fill="#292D32"/>
</svg>
