<svg width="44" height="25" viewBox="0 0 44 25" fill="none" xmlns="http://www.w3.org/2000/svg">
<g clipPath="url(#clip0_48532_390)">
<path d="M19.3516 17.5204H22.7729V20.5972C22.7729 20.7966 22.9645 20.9584 23.202 20.9584C23.9512 20.9584 25.4859 20.9584 26.1942 20.9584H36.4417C37.3983 20.9584 38.2049 20.6285 38.8617 19.9689C39.5292 19.2981 39.863 18.4819 39.863 17.5204C39.863 16.7862 39.863 15.1785 39.863 14.4594C39.863 14.2599 39.6712 14.0993 39.4337 14.0993C38.6846 14.0993 37.15 14.0993 36.4417 14.0993C35.4848 14.0993 26.1942 14.0993 26.1942 14.0993C25.2819 14.0993 19.3516 14.0993 19.3516 14.0993C19.3516 14.0993 19.3516 8.18498 19.3516 7.22349C19.3516 6.30672 19.3516 0.347656 19.3516 0.347656H23.4201H26.1942H36.4417C37.3539 0.347656 38.2164 0.526545 39.0284 0.884323C39.8519 1.24207 40.5695 1.72842 41.1815 2.34332C41.8043 2.95825 42.2994 3.68495 42.6668 4.52345C43.0449 5.36196 43.251 6.262 43.2842 7.22349H39.863C39.863 6.262 39.5292 5.45141 38.8617 4.79179C38.2049 4.12099 37.3983 3.78557 36.4417 3.78557C36.4417 3.78557 27.1511 3.78557 26.1942 3.78557C25.4859 3.78557 23.9512 3.78557 23.202 3.78557C22.9645 3.78557 22.7729 3.94727 22.7729 4.14672V7.22349V10.3002C22.7729 10.4997 22.9654 10.6614 23.2029 10.6614H26.1942H36.4417C37.3317 10.6614 43.2842 10.6614 43.2842 10.6614C43.2842 10.6614 43.2842 16.5589 43.2842 17.5204C43.2842 18.4372 43.1061 19.3093 42.7502 20.1366C42.3942 20.9639 41.9045 21.6907 41.2813 22.3168C40.6696 22.9428 39.9463 23.4459 39.1117 23.8261C38.2886 24.2063 37.3983 24.3963 36.4417 24.3963H26.1942C25.2597 24.3963 23.574 24.3963 23.574 24.3963H19.3516L19.3516 20.1878V17.5204Z" fill="white" stroke="white" strokeWidth="2"/>
<path d="M0.359375 24.3963V0.347656H28.8506V3.78557H4.43238V10.6614H15.4312V14.0993H4.43238V24.3963H0.359375Z" fill="white" stroke="white" strokeWidth="2"/>
</g>
<defs>
<clipPath id="clip0_48532_390">
<rect width="44" height="25" fill="white"/>
</clipPath>
</defs>
</svg>
