<svg width="181" height="288" viewBox="0 0 181 288" fill="none" xmlns="http://www.w3.org/2000/svg">
<g clipPath="url(#clip0_48532_491)">
<path d="M65.8569 116.771C65.6435 117.058 65.4273 117.342 65.2082 117.626L66.7893 115.575C64.3742 118.695 61.6222 121.55 58.5022 123.966L60.5494 122.382C57.876 124.444 54.9555 126.163 51.8468 127.485L54.2619 126.464C50.746 127.949 47.0335 128.911 43.2565 129.42L45.944 129.057C41.7148 129.619 37.4267 129.631 33.1779 129.271C31.8973 129.161 30.6224 129.018 29.3503 128.846L32.0377 129.209C30.833 129.046 29.6339 128.857 28.4376 128.646C27.0925 128.224 25.7502 128.165 24.405 128.466C23.0599 128.528 21.8074 128.928 20.6477 129.667C19.4682 130.303 18.5247 131.172 17.8114 132.275C16.9184 133.254 16.3146 134.401 16.0029 135.718L15.6406 138.409C15.6462 140.238 16.1068 141.939 17.0223 143.52L18.6033 145.571C19.8642 146.825 21.3525 147.694 23.0655 148.175C25.8934 148.676 28.7437 149.07 31.5996 149.373C33.4811 149.573 35.3711 149.705 37.2638 149.753C41.7232 149.863 46.1686 149.427 50.5578 148.653C52.2259 148.361 53.8743 147.973 55.4975 147.489C57.9209 146.763 60.2518 145.776 62.5629 144.758C64.1074 144.077 65.607 143.295 67.0504 142.42C69.224 141.101 71.229 139.546 73.2172 137.965C76.1013 135.678 78.6651 133.009 80.9286 130.109C81.7345 129.077 82.5405 128.044 83.3212 126.992C84.0597 125.831 84.4585 124.576 84.5203 123.229C84.8207 121.882 84.7618 120.537 84.3405 119.19C84.0288 117.873 83.4251 116.723 82.5321 115.747C81.8188 114.644 80.8724 113.775 79.6958 113.14L77.2807 112.119C75.4891 111.638 73.6974 111.638 71.9058 112.119L69.4907 113.14C67.9715 114.04 66.764 115.252 65.8625 116.774L65.8569 116.771Z" fill="black"/>
<path d="M133.89 114.561C132.915 115.405 132.343 116.643 131.918 117.908C131.194 120.187 129.798 122.099 128.574 124.04C127.125 126.065 125.28 127.669 123.758 129.637C123.457 129.919 123.457 130.397 123.634 130.791C124.207 132.394 125.182 133.744 126.055 135.15C127.726 138.019 129.475 140.832 131.472 143.42C132.621 145.108 133.893 146.711 135.266 148.173C138.585 152.168 142.604 155.29 146.122 159.003C149.192 162.406 152.261 165.866 154.758 169.832C157.729 174.163 159.824 179.142 161.82 184.12C162.345 186.005 163.143 187.833 163.567 189.774C163.94 191.405 164.64 192.924 164.791 194.64C165.041 197.312 166.016 199.872 165.99 202.572C166.389 207.607 166.316 212.67 165.816 217.676C165.019 221.192 163.794 224.596 162.272 227.83C161.497 229.996 159.627 231.543 159.276 233.906C158.976 235.987 160.323 237.675 160.725 239.616C161.2 241.782 161.874 243.919 161.949 246.198C162 248.195 162 250.248 161.475 252.189C160.95 254.13 160.801 256.239 160.003 258.096C158.332 263.552 155.213 268.306 151.742 272.497C150.02 274.522 148.024 276.21 146.027 277.897C144.555 279.135 142.856 279.923 141.334 281.076C140.312 281.863 139.063 282.173 138.015 282.904C136.993 283.579 135.769 283.72 134.696 284.282C133.224 285.014 131.601 285.182 130.079 285.829C128.332 286.589 126.409 286.532 124.589 287.011C119.621 288.248 114.505 287.967 109.439 287.939C106.819 287.798 104.246 287.376 101.677 286.87C99.7814 286.532 97.8325 286.532 95.9875 285.914C94.4149 285.407 92.7918 285.182 91.1967 284.845C89.9976 284.592 88.8996 283.973 87.7033 283.748C86.6558 283.523 85.6056 283.382 84.6339 282.932C82.9855 282.145 81.1658 281.976 79.5932 281.02C77.4955 280.091 75.4511 278.854 73.7774 277.138C72.9293 276.041 72.1065 274.831 71.6797 273.453C71.5056 271.878 71.3539 270.078 72.3031 268.784C73.55 266.562 75.8218 265.549 77.9925 264.931C80.6126 264.256 83.4096 264.565 85.9538 265.549C87.9251 265.971 89.6971 267.012 91.6208 267.659C92.5699 268.025 93.418 268.672 94.4149 268.925C95.8387 269.29 97.1108 270.162 98.5345 270.444C100.307 270.809 101.955 271.709 103.752 271.878C106.173 272.131 108.495 273.172 110.941 273.088C114.659 273.481 118.428 273.341 122.174 273.341C123.421 273.341 124.671 273.116 125.917 273.088C128.038 273.031 130.037 272.187 132.107 271.906C133.455 271.737 134.727 271.316 135.976 270.725C139.621 269.459 142.665 266.59 145.036 263.271C146.732 260.486 147.88 257.252 148.33 253.905C148.478 252.667 148.855 251.429 148.754 250.164C148.428 249.348 147.855 248.617 147.131 248.279C145.134 249.376 143.561 251.204 141.615 252.358C138.495 254.664 135.1 256.464 131.657 258.011C129.911 258.574 128.262 259.558 126.465 259.84C125.041 260.093 123.693 260.627 122.272 260.824C118.428 261.471 114.51 261.724 110.615 261.246C108.094 261.218 105.698 260.205 103.202 259.783C101.48 259.446 99.8825 258.518 98.1863 258.124C96.639 257.421 95.117 256.661 93.5949 255.958C89.9246 254.383 86.7569 251.683 83.1119 250.023C77.0462 247.267 71.0563 244.285 65.0158 241.416C63.6932 240.628 62.2441 240.235 60.972 239.335C57.7033 237.703 54.6564 235.594 51.3371 234.075C49.6409 233.231 48.043 232.19 46.4199 231.178C45.072 230.221 43.5499 229.265 42.8001 227.605C42.4744 225.89 42.5249 224.033 42.8759 222.317C43.6257 219.786 45.423 217.029 48.0178 217.029C49.6662 217.058 51.4129 216.804 52.9097 217.705C54.1088 218.351 55.4567 218.633 56.6024 219.42C57.5263 219.898 58.498 220.714 59.5735 220.405C60.1969 218.717 58.8996 217.283 58.5738 215.736C58.2003 213.964 57.3747 212.36 57.077 210.56C56.8018 208.957 56.1026 207.466 55.8526 205.835C55.628 204.428 55.3275 203.078 55.0046 201.7C54.4794 199.647 54.4794 197.481 54.1059 195.371C53.3814 191.659 53.3814 187.833 53.1315 184.064C53.182 181.336 52.8563 178.607 53.1062 175.879C53.081 171.21 53.3562 166.541 53.7549 161.872C54.4289 157.793 54.4542 153.63 55.3275 149.58C55.7516 147.611 55.8021 145.586 56.2767 143.617C56.6249 142.182 56.9759 140.748 57.1248 139.257C57.2736 137.372 57.9981 135.629 58.3239 133.8C58.5233 132.647 58.7226 131.522 59.0484 130.397C59.7476 128.287 59.9723 125.981 60.7193 123.871C61.2191 121.762 61.9661 119.737 62.4407 117.627C62.7889 116.277 63.3899 115.039 63.6651 113.689C64.0386 111.861 65.336 110.201 64.7884 108.232" fill="black"/>
<path d="M133.89 114.561C132.915 115.405 132.343 116.643 131.918 117.908C131.194 120.187 129.798 122.099 128.574 124.04C127.125 126.065 125.28 127.669 123.758 129.637C123.457 129.919 123.457 130.397 123.634 130.791C124.207 132.394 125.182 133.744 126.055 135.15C127.726 138.019 129.475 140.832 131.472 143.42C132.621 145.108 133.893 146.711 135.266 148.173C138.585 152.168 142.604 155.29 146.122 159.003C149.192 162.406 152.261 165.866 154.758 169.832C157.729 174.163 159.824 179.142 161.82 184.12C162.345 186.005 163.143 187.833 163.567 189.774C163.94 191.405 164.64 192.924 164.791 194.64C165.041 197.312 166.016 199.872 165.99 202.572C166.389 207.607 166.316 212.67 165.816 217.676C165.019 221.192 163.794 224.596 162.272 227.83C161.497 229.996 159.627 231.543 159.276 233.906C158.976 235.987 160.323 237.675 160.725 239.616C161.2 241.782 161.874 243.919 161.949 246.198C162 248.195 162 250.248 161.475 252.189C160.95 254.13 160.801 256.239 160.003 258.096C158.332 263.552 155.213 268.306 151.742 272.497C150.02 274.522 148.024 276.21 146.027 277.897C144.555 279.135 142.856 279.923 141.334 281.076C140.312 281.863 139.063 282.173 138.015 282.904C136.993 283.579 135.769 283.72 134.696 284.282C133.224 285.014 131.601 285.182 130.079 285.829C128.332 286.589 126.409 286.532 124.589 287.011C119.621 288.248 114.505 287.967 109.439 287.939C106.819 287.798 104.246 287.376 101.677 286.87C99.7814 286.532 97.8325 286.532 95.9875 285.914C94.4149 285.407 92.7918 285.182 91.1967 284.845C89.9976 284.592 88.8996 283.973 87.7033 283.748C86.6558 283.523 85.6056 283.382 84.6339 282.932C82.9855 282.145 81.1658 281.976 79.5932 281.02C77.4955 280.091 75.4511 278.854 73.7774 277.138C72.9293 276.041 72.1065 274.831 71.6797 273.453C71.5056 271.878 71.3539 270.078 72.3031 268.784C73.55 266.562 75.8218 265.549 77.9925 264.931C80.6126 264.256 83.4096 264.565 85.9538 265.549C87.9251 265.971 89.6971 267.012 91.6208 267.659C92.5699 268.025 93.418 268.672 94.4149 268.925C95.8387 269.29 97.1108 270.162 98.5346 270.444C100.307 270.809 101.955 271.709 103.752 271.878C106.173 272.131 108.495 273.172 110.941 273.088C114.659 273.481 118.428 273.341 122.174 273.341C123.421 273.341 124.671 273.116 125.917 273.088C128.038 273.031 130.037 272.187 132.107 271.906C133.455 271.737 134.727 271.316 135.976 270.725C139.621 269.459 142.665 266.59 145.036 263.271C146.732 260.486 147.88 257.252 148.33 253.905C148.478 252.667 148.855 251.429 148.754 250.164C148.428 249.348 147.855 248.617 147.131 248.279C145.134 249.376 143.561 251.204 141.615 252.358C138.495 254.664 135.1 256.464 131.657 258.011C129.911 258.574 128.262 259.558 126.465 259.84C125.041 260.093 123.693 260.627 122.272 260.824C118.428 261.471 114.51 261.724 110.615 261.246C108.094 261.218 105.698 260.205 103.202 259.783C101.48 259.446 99.8825 258.518 98.1863 258.124C96.639 257.421 95.117 256.661 93.5949 255.958C89.9246 254.383 86.7569 251.683 83.1119 250.023C77.0462 247.267 71.0563 244.285 65.0158 241.416C63.6932 240.628 62.2441 240.235 60.972 239.335C57.7033 237.703 54.6564 235.594 51.3371 234.075C49.6409 233.231 48.043 232.19 46.4199 231.178C45.072 230.221 43.5499 229.265 42.8001 227.605C42.4744 225.89 42.5249 224.033 42.8759 222.317C43.6257 219.786 45.423 217.029 48.0178 217.029C49.6662 217.058 51.4129 216.804 52.9097 217.705C54.1088 218.351 55.4567 218.633 56.6024 219.42C57.5263 219.898 58.498 220.714 59.5735 220.405C60.1969 218.717 58.8996 217.283 58.5738 215.736C58.2003 213.964 57.3747 212.36 57.077 210.56C56.8018 208.957 56.1026 207.466 55.8526 205.835C55.628 204.428 55.3275 203.078 55.0046 201.7C54.4794 199.647 54.4794 197.481 54.1059 195.371C53.3814 191.659 53.3814 187.833 53.1315 184.064C53.182 181.336 52.8563 178.607 53.1062 175.879C53.081 171.21 53.3562 166.541 53.7549 161.872C54.4289 157.793 54.4542 153.63 55.3275 149.58C55.7516 147.611 55.8021 145.586 56.2767 143.617C56.6249 142.182 56.9759 140.748 57.1248 139.257C57.2736 137.372 57.9981 135.629 58.3239 133.8C58.5233 132.647 58.7226 131.522 59.0484 130.397C59.7476 128.287 59.9723 125.981 60.7193 123.871C61.2191 121.762 61.9661 119.737 62.4407 117.627C62.7889 116.277 63.3899 115.039 63.6651 113.689C64.0386 111.861 65.336 110.201 64.7884 108.232" stroke="black" strokeWidth="0.09"/>
<path d="M47.179 114.566L61.8715 135.873C62.8909 137.35 64.5309 138.219 66.2607 138.196L91.2257 137.881C95.5812 137.828 98.1788 143.015 95.6177 146.66L80.9505 167.55C79.9339 168.999 79.6727 170.886 80.2512 172.596L88.5888 197.303C90.0434 201.615 86.1569 205.728 82.012 204.262L58.2546 195.869C56.609 195.287 54.8061 195.585 53.4329 196.665L33.6182 212.248C30.1613 214.967 25.1627 212.321 25.1599 207.77L25.143 181.69C25.143 179.884 24.2893 178.18 22.8628 177.136L2.28143 162.062C-1.31026 159.433 -0.51273 153.686 3.63218 152.336L27.3784 144.612C29.024 144.078 30.2989 142.728 30.7931 141.001L37.8867 116.099C39.1251 111.754 44.6151 110.848 47.179 114.566Z" fill="#E0CB05"/>
<path d="M98.0037 140.997C96.316 144.507 94.2941 147.855 91.9155 150.94L93.4965 148.89C91.4325 151.562 89.1129 154.029 86.5659 156.242C85.8386 156.875 85.0944 157.483 84.3334 158.073L86.3806 156.49C83.3393 158.841 80.0481 160.852 76.594 162.532C75.5914 163.021 74.5721 163.479 73.5443 163.915L75.9593 162.894C70.6827 165.119 65.1393 166.655 59.5173 167.701C57.7958 168.022 56.066 168.295 54.3305 168.531L57.018 168.168C50.312 169.071 43.5386 169.386 36.7764 169.336C34.718 169.322 32.6596 169.271 30.604 169.189C29.2111 169.136 27.9137 169.428 26.709 170.061C25.4566 170.469 24.3698 171.167 23.4543 172.154C22.4686 173.071 21.7722 174.157 21.365 175.414C20.7332 176.621 20.4411 177.92 20.4945 179.315L20.8567 182.007C21.3369 183.723 22.2047 185.211 23.4571 186.476L25.5043 188.06C27.0797 188.977 28.7815 189.435 30.6068 189.444C37.5346 189.711 44.485 189.652 51.3931 189.045C55.3808 188.696 59.3656 188.181 63.3112 187.512C66.2233 187.017 69.1157 186.398 71.966 185.627C74.676 184.893 77.3494 184.021 79.961 182.986C83.2326 181.689 86.4817 180.288 89.5651 178.584C91.8116 177.341 93.9767 175.948 96.0295 174.401C98.7535 172.348 101.404 170.238 103.797 167.803C106.198 165.356 108.335 162.644 110.34 159.868C111.91 157.699 113.311 155.41 114.55 153.036C114.864 152.434 115.167 151.826 115.462 151.213C116.201 150.051 116.6 148.797 116.661 147.45C116.962 146.102 116.903 144.758 116.482 143.41C116.17 142.094 115.566 140.944 114.673 139.968C113.96 138.865 113.014 137.996 111.837 137.36L109.422 136.339C107.63 135.858 105.839 135.858 104.047 136.339L101.632 137.36C100.113 138.26 98.9051 139.473 98.0037 140.994V140.997Z" fill="black"/>
<path d="M113.01 228.479C106.15 228.4 99.281 228.145 92.4514 227.461C90.7609 227.292 89.0731 227.095 87.391 226.868L90.0785 227.23C84.4312 226.468 78.8372 225.349 73.3331 223.869C67.5033 222.302 61.7802 220.353 56.1273 218.238C52.457 216.865 48.8147 215.42 45.1837 213.949C43.8386 213.527 42.4963 213.468 41.1511 213.769C39.806 213.83 38.5535 214.23 37.3937 214.97C36.2143 215.605 35.2707 216.474 34.5575 217.577C33.6645 218.556 33.0607 219.703 32.749 221.02L32.3867 223.712C32.3923 225.54 32.8529 227.242 33.7684 228.822L35.3494 230.873C36.6103 232.127 38.0986 232.997 39.8116 233.477C44.5828 235.413 49.3764 237.3 54.2233 239.038C58.4412 240.552 62.7013 241.947 67.0203 243.142C71.1343 244.278 75.3017 245.226 79.5084 245.958C84.7597 246.875 90.0672 247.541 95.3804 247.98C100.693 248.419 105.737 248.613 110.924 248.703C111.62 248.714 112.319 248.725 113.016 248.731C114.409 248.784 115.706 248.492 116.911 247.859C118.163 247.451 119.25 246.754 120.166 245.766C121.151 244.849 121.848 243.764 122.255 242.506C122.887 241.3 123.179 240 123.125 238.605C123.005 237.708 122.884 236.811 122.763 235.913C122.283 234.198 121.415 232.71 120.163 231.444L118.116 229.86C116.54 228.943 114.838 228.485 113.013 228.476L113.01 228.479Z" fill="black"/>
<path d="M82.5177 55.6192C80.3919 57.9173 77.8252 58.7554 75.0704 57.9173C71.8606 56.9412 68.7238 55.6136 65.719 54.1116C62.8406 52.6715 61.7398 49.9487 61.723 46.8041C61.6977 42.3656 63.172 38.2871 65.0086 34.3633C69.4989 24.7859 74.9271 15.8048 82.3633 8.17944C85.2726 5.19512 88.4683 2.55957 92.3689 0.942243C97.4096 -1.15044 99.4709 0.174363 99.395 5.60296C99.308 11.9007 97.6764 17.9425 95.0255 23.5455C91.1108 31.8178 88.1313 40.3882 85.3877 49.0824C84.6744 51.3382 83.4894 53.445 82.5205 55.6192H82.5177Z" fill="white"/>
<path d="M173.148 73.8394C166.743 82.0048 159.952 89.5683 151.39 95.281C149.287 96.6845 146.855 97.7084 144.445 98.5156C141.382 99.5423 138.447 98.8419 136.254 96.4004C134.271 94.1924 132.325 91.8832 130.786 89.3573C128.419 85.4757 129.085 82.1595 132.494 79.1695C133.982 77.8644 135.566 76.6353 137.237 75.5777C144.243 71.1363 151.081 66.5037 157.414 61.0808C162.53 56.7013 168.307 53.1854 174.906 51.3599C179.641 50.0492 181.415 51.6187 180.918 56.541C180.486 60.8304 178.731 64.6586 176.633 68.3348C175.532 70.2644 174.26 72.0955 173.148 73.8422V73.8394Z" fill="white"/>
<path d="M110.097 138.468C98.8977 139.748 88.0889 137.709 77.6564 132.837C77.0976 132.575 76.4966 132.415 75.9125 132.21L69.0942 128.269C66.154 125.875 63.0509 123.648 60.3017 121.063C51.0852 112.394 45.0279 102.127 43.1155 89.9649C40.8746 75.7296 46.081 62.6222 56.4123 54.3499H56.418C60.3129 51.2306 64.9352 48.7976 70.1697 47.2534C74.177 46.0692 78.4146 45.4954 82.5006 44.6516C81.8631 43.5237 81.0824 42.1539 80.3046 40.7841C80.4983 40.6603 80.6921 40.5365 80.8858 40.4156C81.6413 41.2032 82.3995 41.9879 83.1465 42.7699L84.2136 39.9824C84.4467 40.0415 84.6797 40.1034 84.9128 40.1624C84.7331 41.7094 84.5562 43.2536 84.3793 44.7753C108.241 45.6501 126.783 56.1529 139.85 76.2359C140.973 75.4849 142.133 74.7142 143.29 73.9407C143.447 74.1039 143.601 74.2698 143.759 74.4358C143.214 75.1783 142.669 75.9181 142.108 76.686C143.175 76.9897 144.141 77.2682 145.107 77.5467C145.104 77.7492 145.098 77.9517 145.095 78.157C143.711 78.233 142.329 78.3089 141.282 78.3652C142.638 82.438 144.41 86.5615 145.362 90.8144C150.771 114.984 135.483 135.568 110.102 138.471L110.097 138.468Z" fill="black"/>
<path d="M87.4985 88.8567C88.5431 89.6021 89.6018 90.3306 90.6296 91.1013C91.6575 91.8719 91.5676 92.6089 90.5033 93.2924C88.838 94.3612 85.9512 94.3022 84.3421 93.1461C82.7386 91.9957 81.6883 89.2252 82.1741 87.3631C82.4774 86.2071 83.1317 85.7683 84.2213 86.5165C85.3278 87.2759 86.4089 88.0719 87.4985 88.8567Z" fill="white"/>
<path d="M138.945 106.395C138.639 113.323 132.927 117.815 125.865 116.887C123.436 116.569 122.891 114.088 121.947 111.478C121.658 110.682 121.332 109.872 120.903 109.11C120.532 108.443 120.085 107.816 119.515 107.256C118.634 106.297 117.544 105.549 116.446 104.854C115.828 104.463 115.205 104.086 114.615 103.701C112.354 102.224 110.582 100.579 111.332 97.1667C111.419 96.7701 111.096 96.2863 110.973 95.8419C110.855 95.4228 110.523 94.8265 110.683 94.6268C110.925 94.323 111.518 94.3118 111.95 94.1486C112.276 94.0221 112.666 93.9292 112.891 93.6902C118.159 88.1434 124.584 87.3587 131.026 91.71C136.174 95.1865 139.229 99.9963 138.945 106.395Z" fill="white"/>
<path d="M127.523 106.061C126.731 108.559 124.509 110.606 121.945 111.478C121.406 109.988 120.738 108.457 119.514 107.256C118.135 105.754 116.245 104.773 114.613 103.701C116.183 100.911 119.553 98.9841 122.78 99.2231C126.512 99.496 128.635 102.556 127.523 106.061Z" fill="black"/>
<path d="M124.85 108.176C125.055 108.567 124.724 109.023 124.289 108.949L121.798 108.519C121.626 108.491 121.45 108.547 121.329 108.674L120.902 109.11C120.531 108.443 120.085 107.816 119.515 107.256C118.633 106.297 117.543 105.549 116.445 104.854L118.001 104.086C118.158 104.007 118.268 103.858 118.293 103.684L118.658 101.181C118.72 100.742 119.259 100.567 119.565 100.885L121.329 102.697C121.452 102.823 121.626 102.882 121.801 102.851L124.291 102.424C124.727 102.351 125.058 102.806 124.853 103.197L123.676 105.439C123.595 105.594 123.595 105.779 123.676 105.934L124.85 108.176Z" fill="white"/>
<path d="M77.8935 79.7321C77.6576 79.9571 77.5621 80.348 77.4386 80.6743C77.2729 81.1075 77.2617 81.701 76.9584 81.9429C76.759 82.1032 76.1637 81.7713 75.7452 81.6532C75.3015 81.5294 74.8185 81.2059 74.4226 81.2931C69.6009 82.3563 68.3147 78.3622 66.0288 75.077C65.5318 74.3653 64.987 73.6846 64.3495 73.0968C63.4818 72.2108 62.44 71.6145 61.3672 71.1475C58.3596 69.8396 55.1021 69.5527 54.7342 66.7372C53.8075 59.6631 58.2922 53.942 65.2088 53.6354C71.5975 53.3513 76.3995 56.4116 79.8705 61.5673C84.2148 68.0198 83.4313 74.4553 77.8935 79.7321Z" fill="white"/>
<path d="M70.1828 74.0963C72.3531 70.5931 71.8775 66.3641 69.1206 64.6507C66.3637 62.9372 62.3694 64.3881 60.1991 67.8913C58.0289 71.3945 58.5045 75.6234 61.2614 77.3369C64.0183 79.0503 68.0125 77.5995 70.1828 74.0963Z" fill="black"/>
<path d="M69.5728 73.111L67.0735 73.4766C66.8994 73.5019 66.7505 73.6116 66.6719 73.7691L66.0288 75.0771C65.5318 74.3655 64.987 73.6848 64.3495 73.0969C63.4818 72.2109 62.4399 71.6146 61.3672 71.1477L62.0917 70.4389C62.2181 70.3151 62.2742 70.1379 62.2462 69.9663L61.8165 67.4714C61.7435 67.0354 62.1984 66.7035 62.5888 66.9089L64.8269 68.0874C64.9813 68.169 65.1667 68.169 65.3211 68.0846L67.5593 66.906C67.9496 66.7007 68.4045 67.0326 68.3315 67.4686L67.9047 69.9635C67.8766 70.1379 67.9328 70.3123 68.0591 70.436L69.8676 72.2025C70.185 72.5119 70.0108 73.0491 69.5728 73.111Z" fill="white"/>
<path opacity="0.35" d="M45.9865 125.911C44.324 124.929 42.8553 123.528 41.8388 121.742C40.3251 119.084 39.1176 115.858 42.0101 115.63C46.9806 115.239 57.4355 131.474 57.4496 134.585C57.4636 138.427 55.8742 141.904 53.9674 141.44C52.246 141.021 51.1508 128.96 45.9865 125.911Z" fill="white"/>
<path opacity="0.35" d="M90.013 143.802C89.822 142.932 89.8192 142.032 90.1225 141.197C90.5157 140.111 91.1587 139.09 92.0686 139.945C93.7142 141.492 91.5519 148.313 90.4398 148.87C89.3278 149.427 87.9153 150.878 87.48 150.136C87.0896 149.472 90.5522 146.237 90.013 143.802Z" fill="white"/>
<path opacity="0.35" d="M85.1806 197.948C84.8745 197.284 84.7369 196.626 84.8885 196.061C85.0851 195.326 85.5176 194.68 86.4808 195.442C88.2219 196.82 87.2699 201.475 86.3348 201.714C85.3996 201.953 84.3269 202.8 83.8186 202.19C83.3609 201.644 86.0427 199.807 85.1834 197.945L85.1806 197.948Z" fill="white"/>
<path d="M16.4531 141.291C16.4531 141.291 20.6654 155.636 32.4599 147.479C44.2543 139.322 33.1451 131.328 33.1451 131.328L16.4531 141.291Z" fill="black"/>
</g>
<defs>
<clipPath id="clip0_48532_491">
<rect width="181" height="288" fill="white"/>
</clipPath>
</defs>
</svg>
