<svg width="21" height="21" viewBox="0 0 21 21" fill="none" xmlns="http://www.w3.org/2000/svg">
<path d="M14.4921 18.9506H5.96747C5.61796 18.9506 5.32812 18.6607 5.32812 18.3112C5.32812 17.9617 5.61796 17.6719 5.96747 17.6719H14.4921C14.8416 17.6719 15.1314 17.9617 15.1314 18.3112C15.1314 18.6607 14.8416 18.9506 14.4921 18.9506Z" fill="white"/>
<path d="M17.3463 4.90242L13.9364 7.34046C13.4846 7.66439 12.8367 7.46833 12.6407 6.94833L11.0295 2.65193C10.7567 1.91029 9.70822 1.91029 9.43544 2.65193L7.81576 6.9398C7.6197 7.46833 6.98035 7.66439 6.52855 7.33193L3.11871 4.8939C2.43675 4.41652 1.53314 5.08997 1.81445 5.88275L5.36068 15.8139C5.48003 16.1549 5.80396 16.3765 6.16199 16.3765H14.2859C14.644 16.3765 14.9679 16.1464 15.0872 15.8139L18.6335 5.88275C18.9233 5.08997 18.0197 4.41652 17.3463 4.90242ZM12.3594 12.7706H8.09707C7.74757 12.7706 7.45773 12.4808 7.45773 12.1313C7.45773 11.7818 7.74757 11.4919 8.09707 11.4919H12.3594C12.7089 11.4919 12.9987 11.7818 12.9987 12.1313C12.9987 12.4808 12.7089 12.7706 12.3594 12.7706Z" fill="white"/>
</svg>
