<svg width="21" height="21" viewBox="0 0 21 21" fill="none" xmlns="http://www.w3.org/2000/svg">
<path d="M15.4631 9.33653H12.829V3.19883C12.829 1.7667 12.0533 1.47686 11.107 2.55096L10.4251 3.3267L4.65391 9.89063C3.86112 10.7857 4.19358 11.5188 5.38702 11.5188H8.02112V17.6565C8.02112 19.0887 8.79686 19.3785 9.74309 18.3044L10.4251 17.5287L16.1962 10.9647C16.989 10.0696 16.6565 9.33653 15.4631 9.33653Z" fill="#292D32"/>
<path d="M15.4631 9.33653H12.829V3.19883C12.829 1.7667 12.0533 1.47686 11.107 2.55096L10.4251 3.3267L4.65391 9.89063C3.86112 10.7857 4.19358 11.5188 5.38702 11.5188H8.02112V17.6565C8.02112 19.0887 8.79686 19.3785 9.74309 18.3044L10.4251 17.5287L16.1962 10.9647C16.989 10.0696 16.6565 9.33653 15.4631 9.33653Z" fill="url(#paint0_linear_48532_2321)"/>
<defs>
<linearGradient id="paint0_linear_48532_2321" x1="15.8785" y1="0.541918" x2="5.06542" y2="16.8199" gradientUnits="userSpaceOnUse">
<stop stop-color="#4394FF"/>
<stop offset="1" stop-color="#2F80ED"/>
</linearGradient>
</defs>
</svg>
