<svg width="17" height="26" viewBox="0 0 17 26" fill="none" xmlns="http://www.w3.org/2000/svg">
<g clipPath="url(#clip0_48532_468)">
<path d="M13.7722 0H3.22642C1.4795 0 0.0625 1.34267 0.0625 3.00014V22.9999C0.0625 24.6574 1.47953 26 3.22642 26H13.7722C15.5191 26 16.9361 24.6573 16.9361 22.9999V3.00014C16.9361 1.34264 15.5191 0 13.7722 0ZM8.49944 22.9999C8.07315 22.9999 7.68865 22.7561 7.52476 22.3824C7.36196 22.0086 7.45193 21.579 7.75397 21.2926C8.05495 21.0072 8.50907 20.9209 8.90322 21.0763C9.29738 21.2306 9.55443 21.5953 9.55443 22.0005C9.55443 22.2656 9.44304 22.5195 9.2449 22.7074C9.04782 22.8943 8.779 22.9999 8.49944 22.9999ZM10.6084 5.00006H6.39045C5.80779 5.00006 5.33543 4.55216 5.33543 3.99966C5.33543 3.44817 5.80779 3.00027 6.39045 3.00027H10.6084C11.191 3.00027 11.6634 3.44817 11.6634 3.99966C11.6634 4.55216 11.191 5.00006 10.6084 5.00006Z" fill="url(#paint0_linear_48532_468)"/>
</g>
<defs>
<linearGradient id="paint0_linear_48532_468" x1="15.9173" y1="-2.07447" x2="-1.21983" y2="20.9387" gradientUnits="userSpaceOnUse">
<stop stop-color="#4394FF"/>
<stop offset="1" stop-color="#2F80ED"/>
</linearGradient>
<clipPath id="clip0_48532_468">
<rect width="17" height="26" fill="white"/>
</clipPath>
</defs>
</svg>
