<svg width="26" height="27" viewBox="0 0 26 27" fill="none" xmlns="http://www.w3.org/2000/svg">
<path d="M13.001 24.5597C19.1635 24.5597 24.1593 19.5639 24.1593 13.4014C24.1593 7.23878 19.1635 2.24302 13.001 2.24302C6.83839 2.24302 1.84263 7.23878 1.84263 13.4014C1.84263 19.5639 6.83839 24.5597 13.001 24.5597Z" fill="#F0F0F0" stroke="white" strokeWidth="1.39286"/>
<path d="M12.5469 13.4011H23.4636C23.4636 12.4568 23.3378 11.5421 23.1032 10.6719H12.5469V13.4011Z" fill="#D80027"/>
<path d="M12.5469 7.9421H21.9281C21.2877 6.89705 20.4688 5.97334 19.5141 5.21289H12.5469V7.9421Z" fill="#D80027"/>
<path d="M12.9967 23.8622C15.4589 23.8622 17.722 23.0112 19.5091 21.5879H6.48438C8.27148 23.0112 10.5346 23.8622 12.9967 23.8622Z" fill="#D80027"/>
<path d="M4.07356 18.8581H21.9263C22.4405 18.0192 22.8392 17.1021 23.1014 16.1289H2.89844C3.16068 17.1021 3.55942 18.0192 4.07356 18.8581Z" fill="#D80027"/>
<path d="M7.38521 4.57323H8.33859L7.45178 5.21749L7.79053 6.25996L6.90376 5.6157L6.01699 6.25996L6.3096 5.35938C5.5288 6.00978 4.84444 6.77178 4.28048 7.62083H4.58596L4.02147 8.03093C3.93352 8.17764 3.84917 8.32668 3.76834 8.47793L4.03789 9.30757L3.53499 8.94217C3.40998 9.20703 3.29563 9.47786 3.19285 9.75432L3.48983 10.6684H4.58596L3.69915 11.3127L4.03789 12.3552L3.15112 11.7109L2.61994 12.0968C2.56677 12.5242 2.53906 12.9595 2.53906 13.4014H13.001C13.001 7.62344 13.001 6.94228 13.001 2.93945C10.9343 2.93945 9.00767 3.53897 7.38521 4.57323ZM7.79053 12.3552L6.90376 11.7109L6.01699 12.3552L6.35574 11.3127L5.46893 10.6684H6.56506L6.90376 9.62596L7.24247 10.6684H8.33859L7.45178 11.3127L7.79053 12.3552ZM7.45178 8.26509L7.79053 9.30757L6.90376 8.6633L6.01699 9.30757L6.35574 8.26509L5.46893 7.62083H6.56506L6.90376 6.57836L7.24247 7.62083H8.33859L7.45178 8.26509ZM11.5432 12.3552L10.6564 11.7109L9.76963 12.3552L10.1084 11.3127L9.22156 10.6684H10.3177L10.6564 9.62596L10.9951 10.6684H12.0912L11.2044 11.3127L11.5432 12.3552ZM11.2044 8.26509L11.5432 9.30757L10.6564 8.6633L9.76963 9.30757L10.1084 8.26509L9.22156 7.62083H10.3177L10.6564 6.57836L10.9951 7.62083H12.0912L11.2044 8.26509ZM11.2044 5.21749L11.5432 6.25996L10.6564 5.6157L9.76963 6.25996L10.1084 5.21749L9.22156 4.57323H10.3177L10.6564 3.53076L10.9951 4.57323H12.0912L11.2044 5.21749Z" fill="#0052B4"/>
</svg>
