<svg width="22" height="22" viewBox="0 0 22 22" fill="none" xmlns="http://www.w3.org/2000/svg">
<path d="M21.7885 2.72497C22.1233 1.72045 22.0606 0.946189 21.5999 0.401845C21.0557 -0.058657 20.2813 -0.121223 19.2766 0.213048C18.272 0.547923 17.372 1.11294 16.5765 1.90821L14.0652 4.4198L3.6271 1.92409C3.45963 1.8717 3.30267 1.91354 3.15626 2.04956L1.14696 4.05875C1.032 4.17399 0.984771 4.31523 1.00577 4.48264C1.03717 4.65027 1.12618 4.77568 1.27264 4.85946L9.24662 9.23884L5.18106 13.3044L2.13591 12.4727C2.11502 12.4621 2.07329 12.4569 2.01045 12.4569C1.86388 12.4569 1.74364 12.5039 1.64941 12.5982L0.142609 14.1206C0.0379851 14.2459 -0.00902161 14.3768 0.00142432 14.5127C0.0222062 14.6801 0.0902147 14.8005 0.20545 14.8739L4.16094 17.8404L7.12752 21.7958C7.22176 21.9112 7.34738 21.9788 7.50435 22.0001H7.53574C7.68231 22.0001 7.80255 21.9531 7.89679 21.859L9.40353 20.3524C9.53954 20.2057 9.58144 20.0435 9.52921 19.8656L8.69722 16.8205L12.7627 12.7546L17.1423 20.7291C17.205 20.8651 17.3148 20.9488 17.4719 20.9803C17.5031 20.9908 17.5398 20.9959 17.5818 20.9959C17.7071 20.9959 17.8067 20.9644 17.8798 20.9018L19.8894 19.395C20.067 19.2485 20.1298 19.076 20.0778 18.8772L17.5664 7.95229L20.0936 5.42519C20.8887 4.6296 21.4537 3.72949 21.7885 2.72497Z" fill="black"/>
<path d="M21.7885 2.72497C22.1233 1.72045 22.0606 0.946189 21.5999 0.401845C21.0557 -0.058657 20.2813 -0.121223 19.2766 0.213048C18.272 0.547923 17.372 1.11294 16.5765 1.90821L14.0652 4.4198L3.6271 1.92409C3.45963 1.8717 3.30267 1.91354 3.15626 2.04956L1.14696 4.05875C1.032 4.17399 0.984771 4.31523 1.00577 4.48264C1.03717 4.65027 1.12618 4.77568 1.27264 4.85946L9.24662 9.23884L5.18106 13.3044L2.13591 12.4727C2.11502 12.4621 2.07329 12.4569 2.01045 12.4569C1.86388 12.4569 1.74364 12.5039 1.64941 12.5982L0.142609 14.1206C0.0379851 14.2459 -0.00902161 14.3768 0.00142432 14.5127C0.0222062 14.6801 0.0902147 14.8005 0.20545 14.8739L4.16094 17.8404L7.12752 21.7958C7.22176 21.9112 7.34738 21.9788 7.50435 22.0001H7.53574C7.68231 22.0001 7.80255 21.9531 7.89679 21.859L9.40353 20.3524C9.53954 20.2057 9.58144 20.0435 9.52921 19.8656L8.69722 16.8205L12.7627 12.7546L17.1423 20.7291C17.205 20.8651 17.3148 20.9488 17.4719 20.9803C17.5031 20.9908 17.5398 20.9959 17.5818 20.9959C17.7071 20.9959 17.8067 20.9644 17.8798 20.9018L19.8894 19.395C20.067 19.2485 20.1298 19.076 20.0778 18.8772L17.5664 7.95229L20.0936 5.42519C20.8887 4.6296 21.4537 3.72949 21.7885 2.72497Z" fill="url(#paint0_linear_221_2352)"/>
<defs>
<linearGradient id="paint0_linear_221_2352" x1="20.6717" y1="-1.75322" x2="8.81387" y2="22.785" gradientUnits="userSpaceOnUse">
<stop stop-color="#4394FF"/>
<stop offset="1" stop-color="#2F80ED"/>
</linearGradient>
</defs>
</svg>
