<svg width="554" height="333" viewBox="0 0 554 333" fill="none" xmlns="http://www.w3.org/2000/svg">
<g filter="url(#filter0_bi_221_712)">
<mask id="path-1-outside-1_221_712" maskUnits="userSpaceOnUse" x="11.4102" y="-0.666016" width="415" height="238" fill="black">
<rect fill="white" x="11.4102" y="-0.666016" width="415" height="238"/>
<path fillRule="evenodd" clipRule="evenodd" d="M15.4102 3.33398V233.996H54.0656V135.233H158.452V102.258H54.0656V36.3087H195.659V69.2835V135.233H260.6H357.855H386.251C388.506 135.233 390.325 136.773 390.325 138.686V168.047C390.325 177.269 387.158 185.097 380.823 191.531C374.589 197.858 366.934 201.021 357.855 201.021H260.6H232.201C229.948 201.021 228.13 199.47 228.13 197.557V168.047H195.659V193.63L195.659 233.996H235.733H260.6H357.855C366.934 233.996 375.384 232.174 383.196 228.528C391.116 224.881 397.981 220.055 403.787 214.05C409.701 208.046 414.349 201.075 417.727 193.14C421.105 185.204 422.795 176.84 422.795 168.047V102.258H357.855H260.6H232.21C229.956 102.258 228.13 100.707 228.13 98.794V69.2835V39.7727C228.13 37.8597 229.948 36.3087 232.201 36.3087H260.6H285.811H357.855C366.934 36.3087 374.589 39.5259 380.823 45.9598C387.158 52.2866 390.325 60.0613 390.325 69.2835H422.795C422.48 60.0613 420.524 51.4287 416.936 43.3861C413.449 35.3436 408.75 28.3734 402.839 22.4753C397.031 16.5776 390.22 11.9127 382.405 8.48142C374.698 5.0498 366.513 3.33398 357.855 3.33398H285.811H260.6H234.272H195.659H15.4102Z"/>
</mask>
<path fillRule="evenodd" clipRule="evenodd" d="M15.4102 3.33398V233.996H54.0656V135.233H158.452V102.258H54.0656V36.3087H195.659V69.2835V135.233H260.6H357.855H386.251C388.506 135.233 390.325 136.773 390.325 138.686V168.047C390.325 177.269 387.158 185.097 380.823 191.531C374.589 197.858 366.934 201.021 357.855 201.021H260.6H232.201C229.948 201.021 228.13 199.47 228.13 197.557V168.047H195.659V193.63L195.659 233.996H235.733H260.6H357.855C366.934 233.996 375.384 232.174 383.196 228.528C391.116 224.881 397.981 220.055 403.787 214.05C409.701 208.046 414.349 201.075 417.727 193.14C421.105 185.204 422.795 176.84 422.795 168.047V102.258H357.855H260.6H232.21C229.956 102.258 228.13 100.707 228.13 98.794V69.2835V39.7727C228.13 37.8597 229.948 36.3087 232.201 36.3087H260.6H285.811H357.855C366.934 36.3087 374.589 39.5259 380.823 45.9598C387.158 52.2866 390.325 60.0613 390.325 69.2835H422.795C422.48 60.0613 420.524 51.4287 416.936 43.3861C413.449 35.3436 408.75 28.3734 402.839 22.4753C397.031 16.5776 390.22 11.9127 382.405 8.48142C374.698 5.0498 366.513 3.33398 357.855 3.33398H285.811H260.6H234.272H195.659H15.4102Z" fill="#2F80ED" fill-opacity="0.1"/>
<path d="M15.4102 233.996H12.1477V237.258H15.4102V233.996ZM15.4102 3.33398V0.0715716H12.1477V3.33398H15.4102ZM54.0656 233.996V237.258H57.3281V233.996H54.0656ZM54.0656 135.233V131.97H50.8032V135.233H54.0656ZM158.452 135.233V138.495H161.714V135.233H158.452ZM158.452 102.258H161.714V98.9958H158.452V102.258ZM54.0656 102.258H50.8032V105.521H54.0656V102.258ZM54.0656 36.3087V33.0463H50.8032V36.3087H54.0656ZM195.659 36.3087H198.921V33.0463H195.659V36.3087ZM195.659 135.233H192.397V138.495H195.659V135.233ZM380.823 191.531L383.147 193.821L383.147 193.82L380.823 191.531ZM228.13 168.047H231.392V164.784H228.13V168.047ZM195.659 168.047V164.784H192.397V168.047H195.659ZM195.659 193.63L198.921 193.63V193.63H195.659ZM195.659 233.996L192.396 233.996L192.396 237.258H195.659V233.996ZM383.196 228.528L381.831 225.564L381.824 225.568L381.816 225.571L383.196 228.528ZM403.787 214.05L401.462 211.761L401.452 211.772L401.441 211.783L403.787 214.05ZM417.727 193.14L420.728 194.417V194.417L417.727 193.14ZM422.795 102.258H426.058V98.9958H422.795V102.258ZM380.823 45.9598L378.48 48.2299L378.498 48.2492L378.517 48.2682L380.823 45.9598ZM390.325 69.2835H387.063V72.5459H390.325V69.2835ZM422.795 69.2835V72.5459H426.171L426.056 69.1719L422.795 69.2835ZM416.936 43.3861L413.942 44.6838L413.949 44.6997L413.956 44.7155L416.936 43.3861ZM402.839 22.4753L400.515 24.7646L400.525 24.7747L400.535 24.7847L402.839 22.4753ZM382.405 8.48142L381.078 11.4617L381.085 11.4652L381.093 11.4686L382.405 8.48142ZM18.6726 233.996V3.33398H12.1477V233.996H18.6726ZM54.0656 230.734H15.4102V237.258H54.0656V230.734ZM50.8032 135.233V233.996H57.3281V135.233H50.8032ZM158.452 131.97H54.0656V138.495H158.452V131.97ZM155.19 102.258V135.233H161.714V102.258H155.19ZM54.0656 105.521H158.452V98.9958H54.0656V105.521ZM50.8032 36.3087V102.258H57.3281V36.3087H50.8032ZM195.659 33.0463H54.0656V39.5711H195.659V33.0463ZM198.921 69.2835V36.3087H192.397V69.2835H198.921ZM198.921 135.233V69.2835H192.397V135.233H198.921ZM260.6 131.97H195.659V138.495H260.6V131.97ZM357.855 131.97H260.6V138.495H357.855V131.97ZM386.251 131.97H357.855V138.495H386.251V131.97ZM393.588 138.686C393.588 134.486 389.78 131.97 386.251 131.97V138.495C386.644 138.495 386.906 138.63 387.025 138.731C387.135 138.825 387.063 138.819 387.063 138.686H393.588ZM393.588 168.047V138.686H387.063V168.047H393.588ZM383.147 193.82C390.098 186.761 393.588 178.105 393.588 168.047H387.063C387.063 176.433 384.218 183.433 378.498 189.242L383.147 193.82ZM357.855 204.284C367.786 204.284 376.285 200.785 383.147 193.821L378.499 189.241C372.894 194.93 366.082 197.759 357.855 197.759V204.284ZM260.6 204.284H357.855V197.759H260.6V204.284ZM232.201 204.284H260.6V197.759H232.201V204.284ZM224.867 197.557C224.867 201.745 228.658 204.284 232.201 204.284V197.759C231.815 197.759 231.556 197.625 231.436 197.523C231.322 197.426 231.392 197.428 231.392 197.557H224.867ZM224.867 168.047V197.557H231.392V168.047H224.867ZM195.659 171.309H228.13V164.784H195.659V171.309ZM198.921 193.63V168.047H192.397V193.63H198.921ZM198.921 233.996L198.921 193.63L192.397 193.63L192.396 233.996L198.921 233.996ZM235.733 230.734H195.659V237.258H235.733V230.734ZM260.6 230.734H235.733V237.258H260.6V230.734ZM357.855 230.734H260.6V237.258H357.855V230.734ZM381.816 225.571C374.459 229.006 366.483 230.734 357.855 230.734V237.258C367.384 237.258 376.308 235.343 384.576 231.484L381.816 225.571ZM401.441 211.783C395.929 217.484 389.401 222.079 381.831 225.564L384.56 231.491C392.832 227.683 400.033 222.626 406.132 216.318L401.441 211.783ZM414.725 191.862C411.504 199.429 407.083 206.055 401.462 211.761L406.111 216.34C412.319 210.037 417.194 202.721 420.728 194.417L414.725 191.862ZM419.533 168.047C419.533 176.409 417.928 184.338 414.725 191.862L420.728 194.417C424.282 186.07 426.058 177.271 426.058 168.047H419.533ZM419.533 102.258V168.047H426.058V102.258H419.533ZM357.855 105.521H422.795V98.9958H357.855V105.521ZM260.6 105.521H357.855V98.9958H260.6V105.521ZM232.21 105.521H260.6V98.9958H232.21V105.521ZM224.867 98.794C224.867 102.989 228.675 105.521 232.21 105.521V98.9958C231.823 98.9958 231.56 98.8615 231.436 98.7567C231.32 98.6578 231.392 98.6596 231.392 98.794H224.867ZM224.867 69.2835V98.794H231.392V69.2835H224.867ZM224.867 39.7727V69.2835H231.392V39.7727H224.867ZM232.201 33.0463C228.658 33.0463 224.867 35.5855 224.867 39.7727H231.392C231.392 39.9022 231.322 39.9038 231.436 39.8074C231.556 39.7049 231.815 39.5711 232.201 39.5711V33.0463ZM260.6 33.0463H232.201V39.5711H260.6V33.0463ZM285.811 33.0463H260.6V39.5711H285.811V33.0463ZM357.855 33.0463H285.811V39.5711H357.855V33.0463ZM383.166 43.6898C376.309 36.612 367.803 33.0463 357.855 33.0463V39.5711C366.064 39.5711 372.87 42.4397 378.48 48.2299L383.166 43.6898ZM393.588 69.2835C393.588 59.2245 390.096 50.6104 383.128 43.6514L378.517 48.2682C384.219 53.9627 387.063 60.8982 387.063 69.2835H393.588ZM422.795 66.0211H390.325V72.5459H422.795V66.0211ZM413.956 44.7155C417.366 52.3565 419.233 60.5736 419.535 69.3951L426.056 69.1719C425.727 59.549 423.683 50.5008 419.915 42.0568L413.956 44.7155ZM400.535 24.7847C406.14 30.3777 410.611 36.9999 413.942 44.6838L419.929 42.0885C416.287 33.6873 411.36 26.3692 405.144 20.166L400.535 24.7847ZM381.093 11.4686C388.542 14.7387 395.005 19.1706 400.515 24.7646L405.164 20.1861C399.056 13.9846 391.899 9.0867 383.716 5.49423L381.093 11.4686ZM357.855 6.5964C366.068 6.5964 373.8 8.22111 381.078 11.4617L383.732 5.50111C375.596 1.87848 366.957 0.0715716 357.855 0.0715716V6.5964ZM285.811 6.5964H357.855V0.0715716H285.811V6.5964ZM260.6 6.5964H285.811V0.0715716H260.6V6.5964ZM234.272 6.5964H260.6V0.0715716H234.272V6.5964ZM195.659 6.5964H234.272V0.0715716H195.659V6.5964ZM15.4102 6.5964H195.659V0.0715716H15.4102V6.5964Z" fill="url(#paint0_linear_221_712)" fill-opacity="0.17" mask="url(#path-1-outside-1_221_712)"/>
</g>
<g opacity="0.3" filter="url(#filter1_f_221_712)">
<path d="M543 288L374 238L228.5 235L192 240L374 309L543 288Z" fill="url(#paint1_linear_221_712)"/>
</g>
<g opacity="0.3" filter="url(#filter2_f_221_712)">
<path d="M263 305L97.5 251L55.5 238L11 236.5L89 322L263 305Z" fill="url(#paint2_linear_221_712)"/>
</g>
<defs>
<filter id="filter0_bi_221_712" x="-60.4412" y="-72.5172" width="559.202" height="382.364" filterUnits="userSpaceOnUse" color-interpolation-filters="sRGB">
<feFlood flood-opacity="0" result="BackgroundImageFix"/>
<feGaussianBlur in="BackgroundImageFix" stdDeviation="36.2943"/>
<feComposite in2="SourceAlpha" operator="in" result="effect1_backgroundBlur_221_712"/>
<feBlend mode="normal" in="SourceGraphic" in2="effect1_backgroundBlur_221_712" result="shape"/>
<feColorMatrix in="SourceAlpha" type="matrix" values="0 0 0 0 0 0 0 0 0 0 0 0 0 0 0 0 0 0 127 0" result="hardAlpha"/>
<feOffset dx="4" dy="4"/>
<feComposite in2="hardAlpha" operator="arithmetic" k2="-1" k3="1"/>
<feColorMatrix type="matrix" values="0 0 0 0 0.637778 0 0 0 0 0.763778 0 0 0 0 0.933333 0 0 0 0.5 0"/>
<feBlend mode="normal" in2="shape" result="effect2_innerShadow_221_712"/>
</filter>
<filter id="filter1_f_221_712" x="181.7" y="224.7" width="371.6" height="94.6" filterUnits="userSpaceOnUse" color-interpolation-filters="sRGB">
<feFlood flood-opacity="0" result="BackgroundImageFix"/>
<feBlend mode="normal" in="SourceGraphic" in2="BackgroundImageFix" result="shape"/>
<feGaussianBlur stdDeviation="5.15" result="effect1_foregroundBlur_221_712"/>
</filter>
<filter id="filter2_f_221_712" x="0.7" y="226.2" width="272.6" height="106.1" filterUnits="userSpaceOnUse" color-interpolation-filters="sRGB">
<feFlood flood-opacity="0" result="BackgroundImageFix"/>
<feBlend mode="normal" in="SourceGraphic" in2="BackgroundImageFix" result="shape"/>
<feGaussianBlur stdDeviation="5.15" result="effect1_foregroundBlur_221_712"/>
</filter>
<linearGradient id="paint0_linear_221_712" x1="269.485" y1="-15.0699" x2="66.156" y2="275.182" gradientUnits="userSpaceOnUse">
<stop stop-color="#56CCF2"/>
<stop offset="1" stop-color="#5682F2"/>
</linearGradient>
<linearGradient id="paint1_linear_221_712" x1="248.5" y1="242" x2="248.5" y2="306" gradientUnits="userSpaceOnUse">
<stop/>
<stop offset="1" stop-opacity="0"/>
</linearGradient>
<linearGradient id="paint2_linear_221_712" x1="48.5" y1="242" x2="48.5" y2="306" gradientUnits="userSpaceOnUse">
<stop/>
<stop offset="1" stop-opacity="0"/>
</linearGradient>
</defs>
</svg>
