<svg width="22" height="22" viewBox="0 0 22 22" fill="none" xmlns="http://www.w3.org/2000/svg">
<g clipPath="url(#clip0_221_2340)">
<path d="M11 0C8.82441 0 6.69767 0.645139 4.88873 1.85383C3.07979 3.06253 1.66989 4.78049 0.83733 6.79048C0.0047661 8.80047 -0.213071 11.0122 0.211367 13.146C0.635804 15.2798 1.68345 17.2398 3.22183 18.7782C4.76021 20.3166 6.72022 21.3642 8.85401 21.7886C10.9878 22.2131 13.1995 21.9952 15.2095 21.1627C17.2195 20.3301 18.9375 18.9202 20.1462 17.1113C21.3549 15.3023 22 13.1756 22 11C22 8.08262 20.8411 5.28473 18.7782 3.22183C16.7153 1.15893 13.9174 0 11 0ZM15.0266 7.04724C15.3058 7.04695 15.5789 7.12951 15.8111 7.28446C16.0434 7.43941 16.2245 7.6598 16.3315 7.91772C16.4385 8.17563 16.4666 8.4595 16.4122 8.73337C16.3578 9.00725 16.2233 9.25883 16.0259 9.45628C15.8284 9.65372 15.5769 9.78815 15.303 9.84256C15.0291 9.89696 14.7452 9.8689 14.4873 9.76191C14.2294 9.65492 14.009 9.47382 13.8541 9.24153C13.6991 9.00924 13.6166 8.7362 13.6168 8.45697C13.6168 8.08309 13.7654 7.72452 14.0297 7.46014C14.2941 7.19576 14.6527 7.04724 15.0266 7.04724ZM6.97343 7.04724C7.25266 7.04695 7.52569 7.12951 7.75798 7.28446C7.99027 7.43941 8.17137 7.6598 8.27836 7.91772C8.38535 8.17563 8.41342 8.4595 8.35901 8.73337C8.30461 9.00725 8.17018 9.25883 7.97273 9.45628C7.77529 9.65372 7.52371 9.78815 7.24983 9.84256C6.97595 9.89696 6.69209 9.8689 6.43417 9.76191C6.17625 9.65492 5.95587 9.47382 5.80091 9.24153C5.64596 9.00924 5.5634 8.7362 5.56369 8.45697C5.56407 8.08321 5.71272 7.72486 5.97702 7.46056C6.24131 7.19627 6.59966 7.04762 6.97343 7.04724ZM17.1947 13.805C16.733 16.4407 14.135 18.2687 11 18.2687C7.86501 18.2687 5.26843 16.4407 4.80672 13.805C4.80175 13.7782 4.79885 13.7511 4.79803 13.7239C4.79803 13.3433 5.26119 13.0972 5.66645 13.2362C7.22961 13.7761 9.0533 14.0511 11.0015 14.0511C12.9496 14.0511 14.7733 13.7761 16.3365 13.2362C16.7403 13.0914 17.2049 13.3418 17.2049 13.7239C17.2036 13.7512 17.2002 13.7783 17.1947 13.805Z" fill="black"/>
<path d="M11 0C8.82441 0 6.69767 0.645139 4.88873 1.85383C3.07979 3.06253 1.66989 4.78049 0.83733 6.79048C0.0047661 8.80047 -0.213071 11.0122 0.211367 13.146C0.635804 15.2798 1.68345 17.2398 3.22183 18.7782C4.76021 20.3166 6.72022 21.3642 8.85401 21.7886C10.9878 22.2131 13.1995 21.9952 15.2095 21.1627C17.2195 20.3301 18.9375 18.9202 20.1462 17.1113C21.3549 15.3023 22 13.1756 22 11C22 8.08262 20.8411 5.28473 18.7782 3.22183C16.7153 1.15893 13.9174 0 11 0ZM15.0266 7.04724C15.3058 7.04695 15.5789 7.12951 15.8111 7.28446C16.0434 7.43941 16.2245 7.6598 16.3315 7.91772C16.4385 8.17563 16.4666 8.4595 16.4122 8.73337C16.3578 9.00725 16.2233 9.25883 16.0259 9.45628C15.8284 9.65372 15.5769 9.78815 15.303 9.84256C15.0291 9.89696 14.7452 9.8689 14.4873 9.76191C14.2294 9.65492 14.009 9.47382 13.8541 9.24153C13.6991 9.00924 13.6166 8.7362 13.6168 8.45697C13.6168 8.08309 13.7654 7.72452 14.0297 7.46014C14.2941 7.19576 14.6527 7.04724 15.0266 7.04724ZM6.97343 7.04724C7.25266 7.04695 7.52569 7.12951 7.75798 7.28446C7.99027 7.43941 8.17137 7.6598 8.27836 7.91772C8.38535 8.17563 8.41342 8.4595 8.35901 8.73337C8.30461 9.00725 8.17018 9.25883 7.97273 9.45628C7.77529 9.65372 7.52371 9.78815 7.24983 9.84256C6.97595 9.89696 6.69209 9.8689 6.43417 9.76191C6.17625 9.65492 5.95587 9.47382 5.80091 9.24153C5.64596 9.00924 5.5634 8.7362 5.56369 8.45697C5.56407 8.08321 5.71272 7.72486 5.97702 7.46056C6.24131 7.19627 6.59966 7.04762 6.97343 7.04724ZM17.1947 13.805C16.733 16.4407 14.135 18.2687 11 18.2687C7.86501 18.2687 5.26843 16.4407 4.80672 13.805C4.80175 13.7782 4.79885 13.7511 4.79803 13.7239C4.79803 13.3433 5.26119 13.0972 5.66645 13.2362C7.22961 13.7761 9.0533 14.0511 11.0015 14.0511C12.9496 14.0511 14.7733 13.7761 16.3365 13.2362C16.7403 13.0914 17.2049 13.3418 17.2049 13.7239C17.2036 13.7512 17.2002 13.7783 17.1947 13.805Z" fill="url(#paint0_linear_221_2340)"/>
</g>
<defs>
<linearGradient id="paint0_linear_221_2340" x1="20.6717" y1="-1.75532" x2="8.81232" y2="22.7842" gradientUnits="userSpaceOnUse">
<stop stop-color="#4394FF"/>
<stop offset="1" stop-color="#2F80ED"/>
</linearGradient>
<clipPath id="clip0_221_2340">
<rect width="22" height="22" fill="white"/>
</clipPath>
</defs>
</svg>
